<mxfile host="app.diagrams.net" modified="2022-04-08T10:47:00.497Z" agent="5.0 (Macintosh; Intel Mac OS X 10_15_7) AppleWebKit/537.36 (KHTML, like Gecko) Chrome/99.0.4844.84 Safari/537.36" etag="O_zwAW6aHONq3jTCjg3l" version="17.1.5" type="github">
  <diagram id="_0Hxd0sOAMpk5L53WGlg" name="Page-1">
    <mxGraphModel dx="1018" dy="624" grid="1" gridSize="10" guides="1" tooltips="1" connect="1" arrows="1" fold="1" page="1" pageScale="1" pageWidth="827" pageHeight="1169" background="#FFFFFF" math="0" shadow="0">
      <root>
        <mxCell id="0" />
        <mxCell id="1" parent="0" />
        <mxCell id="AACugE2adlVZ0FxIYf1k-47" value="" style="group" parent="1" vertex="1" connectable="0">
          <mxGeometry x="80" y="140" width="680" height="100" as="geometry" />
        </mxCell>
        <mxCell id="AACugE2adlVZ0FxIYf1k-40" value="" style="rounded=0;whiteSpace=wrap;html=1;absoluteArcSize=1;arcSize=14;strokeWidth=2;glass=0;sketch=0;fillColor=#0050ef;strokeColor=none;fontColor=#ffffff;" parent="AACugE2adlVZ0FxIYf1k-47" vertex="1">
          <mxGeometry width="680" height="100" as="geometry" />
        </mxCell>
        <mxCell id="AACugE2adlVZ0FxIYf1k-41" value="运&lt;br&gt;行&lt;br&gt;容&lt;br&gt;器" style="rounded=0;whiteSpace=wrap;html=1;absoluteArcSize=1;arcSize=14;strokeWidth=2;glass=0;sketch=0;strokeColor=none;fillColor=#fad9d5;fontColor=#FFFFFF;" parent="AACugE2adlVZ0FxIYf1k-47" vertex="1">
          <mxGeometry x="10" y="10" width="30" height="80" as="geometry" />
        </mxCell>
        <mxCell id="AACugE2adlVZ0FxIYf1k-5" value="" style="rounded=0;whiteSpace=wrap;html=1;absoluteArcSize=1;arcSize=14;strokeWidth=2;glass=0;sketch=0;fillColor=#dae8fc;strokeColor=none;" parent="AACugE2adlVZ0FxIYf1k-47" vertex="1">
          <mxGeometry x="60" y="10" width="610" height="80" as="geometry" />
        </mxCell>
        <mxCell id="AACugE2adlVZ0FxIYf1k-42" value="小程序" style="rounded=0;whiteSpace=wrap;html=1;glass=0;sketch=0;fontFamily=Helvetica;fontSize=12;strokeWidth=2;strokeColor=none;" parent="AACugE2adlVZ0FxIYf1k-47" vertex="1">
          <mxGeometry x="80" y="20" width="120" height="60" as="geometry" />
        </mxCell>
        <mxCell id="AACugE2adlVZ0FxIYf1k-43" value="App" style="rounded=0;whiteSpace=wrap;html=1;glass=0;sketch=0;fontFamily=Helvetica;fontSize=12;strokeWidth=2;strokeColor=none;" parent="AACugE2adlVZ0FxIYf1k-47" vertex="1">
          <mxGeometry x="230" y="20" width="120" height="60" as="geometry" />
        </mxCell>
        <mxCell id="AACugE2adlVZ0FxIYf1k-44" value="WebView" style="rounded=0;whiteSpace=wrap;html=1;glass=0;sketch=0;fontFamily=Helvetica;fontSize=12;strokeWidth=2;strokeColor=none;" parent="AACugE2adlVZ0FxIYf1k-47" vertex="1">
          <mxGeometry x="380" y="20" width="120" height="60" as="geometry" />
        </mxCell>
        <mxCell id="AACugE2adlVZ0FxIYf1k-45" value="..." style="rounded=0;whiteSpace=wrap;html=1;glass=0;sketch=0;fontFamily=Helvetica;fontSize=12;strokeWidth=2;strokeColor=none;" parent="AACugE2adlVZ0FxIYf1k-47" vertex="1">
          <mxGeometry x="530" y="20" width="120" height="60" as="geometry" />
        </mxCell>
        <mxCell id="AACugE2adlVZ0FxIYf1k-57" value="" style="group" parent="1" vertex="1" connectable="0">
          <mxGeometry x="80" y="249" width="680" height="100" as="geometry" />
        </mxCell>
        <mxCell id="AACugE2adlVZ0FxIYf1k-46" value="" style="verticalLabelPosition=bottom;verticalAlign=top;html=1;shape=mxgraph.basic.rect;fillColor2=none;strokeWidth=1;size=20;indent=5;rounded=0;glass=0;sketch=0;fontFamily=Helvetica;fontSize=12;fontColor=#ffffff;fillColor=#6a00ff;strokeColor=none;" parent="AACugE2adlVZ0FxIYf1k-57" vertex="1">
          <mxGeometry width="680" height="100" as="geometry" />
        </mxCell>
        <mxCell id="AACugE2adlVZ0FxIYf1k-56" value="&lt;font color=&quot;#ffffff&quot;&gt;端&lt;br&gt;应&lt;br&gt;用&lt;/font&gt;" style="rounded=0;whiteSpace=wrap;html=1;absoluteArcSize=1;arcSize=14;strokeWidth=2;glass=0;sketch=0;strokeColor=none;fillColor=#fad9d5;" parent="AACugE2adlVZ0FxIYf1k-57" vertex="1">
          <mxGeometry x="10" y="10" width="30" height="80" as="geometry" />
        </mxCell>
        <mxCell id="AACugE2adlVZ0FxIYf1k-7" value="" style="group;fillColor=#dae8fc;strokeColor=none;" parent="AACugE2adlVZ0FxIYf1k-57" vertex="1" connectable="0">
          <mxGeometry x="60" y="10" width="610" height="80" as="geometry" />
        </mxCell>
        <mxCell id="AACugE2adlVZ0FxIYf1k-6" value="" style="rounded=0;whiteSpace=wrap;html=1;absoluteArcSize=1;arcSize=14;strokeWidth=2;glass=0;sketch=0;fillColor=#dae8fc;strokeColor=none;" parent="AACugE2adlVZ0FxIYf1k-7" vertex="1">
          <mxGeometry width="610" height="80" as="geometry" />
        </mxCell>
        <mxCell id="n64PXS-GsTqBnX-N94cU-19" value="PaoTui" style="rounded=0;whiteSpace=wrap;html=1;strokeColor=none;" parent="AACugE2adlVZ0FxIYf1k-7" vertex="1">
          <mxGeometry x="25" y="10.67" width="115" height="60" as="geometry" />
        </mxCell>
        <mxCell id="n64PXS-GsTqBnX-N94cU-20" value="JiaZheng" style="rounded=0;whiteSpace=wrap;html=1;strokeColor=none;" parent="AACugE2adlVZ0FxIYf1k-7" vertex="1">
          <mxGeometry x="170" y="10" width="120" height="60" as="geometry" />
        </mxCell>
        <mxCell id="n64PXS-GsTqBnX-N94cU-21" value="DaiJia" style="rounded=0;whiteSpace=wrap;html=1;strokeColor=none;" parent="AACugE2adlVZ0FxIYf1k-7" vertex="1">
          <mxGeometry x="320" y="10.67" width="120" height="60" as="geometry" />
        </mxCell>
        <mxCell id="n64PXS-GsTqBnX-N94cU-22" value="....." style="rounded=0;whiteSpace=wrap;html=1;strokeColor=none;" parent="AACugE2adlVZ0FxIYf1k-7" vertex="1">
          <mxGeometry x="470" y="10" width="120" height="60" as="geometry" />
        </mxCell>
        <mxCell id="AACugE2adlVZ0FxIYf1k-151" value="" style="group" parent="1" vertex="1" connectable="0">
          <mxGeometry x="80" y="360" width="680" height="100" as="geometry" />
        </mxCell>
        <mxCell id="AACugE2adlVZ0FxIYf1k-58" value="" style="verticalLabelPosition=bottom;verticalAlign=top;html=1;shape=mxgraph.basic.rect;fillColor2=none;strokeWidth=1;size=20;indent=5;rounded=0;glass=0;sketch=0;fontFamily=Helvetica;fontSize=12;fontColor=#ffffff;fillColor=#d80073;strokeColor=none;" parent="AACugE2adlVZ0FxIYf1k-151" vertex="1">
          <mxGeometry width="680" height="100" as="geometry" />
        </mxCell>
        <mxCell id="AACugE2adlVZ0FxIYf1k-59" value="&lt;font color=&quot;#ffffff&quot;&gt;构&lt;br&gt;建&lt;/font&gt;" style="rounded=0;whiteSpace=wrap;html=1;absoluteArcSize=1;arcSize=14;strokeWidth=2;glass=0;sketch=0;strokeColor=none;fillColor=#fad9d5;" parent="AACugE2adlVZ0FxIYf1k-151" vertex="1">
          <mxGeometry x="10" y="10" width="30" height="80" as="geometry" />
        </mxCell>
        <mxCell id="AACugE2adlVZ0FxIYf1k-38" value="" style="group;fillColor=#ffff88;strokeColor=none;" parent="AACugE2adlVZ0FxIYf1k-151" vertex="1" connectable="0">
          <mxGeometry x="60" y="10" width="610" height="80" as="geometry" />
        </mxCell>
        <mxCell id="AACugE2adlVZ0FxIYf1k-4" value="" style="rounded=0;whiteSpace=wrap;html=1;absoluteArcSize=1;arcSize=14;strokeWidth=2;glass=0;sketch=0;fillColor=#dae8fc;strokeColor=none;" parent="AACugE2adlVZ0FxIYf1k-38" vertex="1">
          <mxGeometry width="610" height="80" as="geometry" />
        </mxCell>
        <mxCell id="n64PXS-GsTqBnX-N94cU-31" value="" style="rounded=0;whiteSpace=wrap;html=1;strokeColor=none;" parent="AACugE2adlVZ0FxIYf1k-38" vertex="1">
          <mxGeometry x="23.96428571428571" y="10" width="87.14285714285712" height="60" as="geometry" />
        </mxCell>
        <mxCell id="n64PXS-GsTqBnX-N94cU-32" value="app.js" style="rounded=0;whiteSpace=wrap;html=1;fillColor=#fff2cc;strokeColor=none;" parent="AACugE2adlVZ0FxIYf1k-38" vertex="1">
          <mxGeometry x="23.96428571428571" y="10" width="87.14285714285712" height="30" as="geometry" />
        </mxCell>
        <mxCell id="n64PXS-GsTqBnX-N94cU-33" value="app.config.js" style="rounded=0;whiteSpace=wrap;html=1;fillColor=#e1d5e7;strokeColor=none;" parent="AACugE2adlVZ0FxIYf1k-38" vertex="1">
          <mxGeometry x="23.96428571428571" y="40" width="87.14285714285712" height="30" as="geometry" />
        </mxCell>
        <mxCell id="n64PXS-GsTqBnX-N94cU-52" value="" style="edgeStyle=orthogonalEdgeStyle;rounded=0;orthogonalLoop=1;jettySize=auto;html=1;entryX=0;entryY=0.5;entryDx=0;entryDy=0;" parent="AACugE2adlVZ0FxIYf1k-38" source="n64PXS-GsTqBnX-N94cU-31" target="n64PXS-GsTqBnX-N94cU-37" edge="1">
          <mxGeometry relative="1" as="geometry">
            <Array as="points">
              <mxPoint x="143.78571428571428" y="40" />
              <mxPoint x="143.78571428571428" y="40" />
            </Array>
          </mxGeometry>
        </mxCell>
        <mxCell id="n64PXS-GsTqBnX-N94cU-37" value="" style="rounded=0;whiteSpace=wrap;html=1;fillColor=#ffe6cc;strokeColor=none;" parent="AACugE2adlVZ0FxIYf1k-38" vertex="1">
          <mxGeometry x="143.79" y="10" width="446.21" height="60" as="geometry" />
        </mxCell>
        <mxCell id="n64PXS-GsTqBnX-N94cU-38" value="sourceRoot" style="rounded=0;whiteSpace=wrap;html=1;strokeColor=none;" parent="AACugE2adlVZ0FxIYf1k-38" vertex="1">
          <mxGeometry x="154.67857142857142" y="15" width="76.25" height="20" as="geometry" />
        </mxCell>
        <mxCell id="n64PXS-GsTqBnX-N94cU-39" value="webpack" style="rounded=0;whiteSpace=wrap;html=1;strokeColor=none;" parent="AACugE2adlVZ0FxIYf1k-38" vertex="1">
          <mxGeometry x="154.68" y="43" width="425.32" height="20" as="geometry" />
        </mxCell>
        <mxCell id="n64PXS-GsTqBnX-N94cU-42" value="outputRoot" style="rounded=0;whiteSpace=wrap;html=1;strokeColor=none;" parent="AACugE2adlVZ0FxIYf1k-38" vertex="1">
          <mxGeometry x="252.7142857142857" y="15" width="76.25" height="20" as="geometry" />
        </mxCell>
        <mxCell id="n64PXS-GsTqBnX-N94cU-43" value="alias" style="rounded=0;whiteSpace=wrap;html=1;strokeColor=none;" parent="AACugE2adlVZ0FxIYf1k-38" vertex="1">
          <mxGeometry x="350.75" y="15" width="54.46428571428571" height="20" as="geometry" />
        </mxCell>
        <mxCell id="n64PXS-GsTqBnX-N94cU-44" value="publicPath" style="rounded=0;whiteSpace=wrap;html=1;strokeColor=none;" parent="AACugE2adlVZ0FxIYf1k-38" vertex="1">
          <mxGeometry x="430" y="15" width="74.07142857142857" height="20" as="geometry" />
        </mxCell>
        <mxCell id="n64PXS-GsTqBnX-N94cU-56" value="..." style="rounded=0;whiteSpace=wrap;html=1;strokeColor=none;" parent="AACugE2adlVZ0FxIYf1k-38" vertex="1">
          <mxGeometry x="525.5328571428571" y="15" width="54.46428571428571" height="20" as="geometry" />
        </mxCell>
        <mxCell id="qFUEs6rHIgTU6EbkKqds-1" value="" style="group;fillColor=#f0a30a;fontColor=#000000;strokeColor=none;" parent="1" vertex="1" connectable="0">
          <mxGeometry x="80" y="470" width="680" height="560" as="geometry" />
        </mxCell>
        <mxCell id="AACugE2adlVZ0FxIYf1k-60" value="" style="verticalLabelPosition=bottom;verticalAlign=top;html=1;shape=mxgraph.basic.rect;fillColor2=none;strokeWidth=1;size=0;indent=5;rounded=0;glass=0;sketch=0;fontFamily=Helvetica;fontSize=12;fontColor=#000000;fillColor=#fa6800;strokeColor=none;" parent="qFUEs6rHIgTU6EbkKqds-1" vertex="1">
          <mxGeometry width="680" height="560" as="geometry" />
        </mxCell>
        <mxCell id="AACugE2adlVZ0FxIYf1k-62" value="&lt;font color=&quot;#ffffff&quot;&gt;包&lt;/font&gt;" style="rounded=0;whiteSpace=wrap;html=1;absoluteArcSize=1;arcSize=14;strokeWidth=2;glass=0;sketch=0;strokeColor=none;fillColor=#fad9d5;" parent="qFUEs6rHIgTU6EbkKqds-1" vertex="1">
          <mxGeometry x="10" y="10" width="30" height="540" as="geometry" />
        </mxCell>
        <mxCell id="AACugE2adlVZ0FxIYf1k-11" value="" style="rounded=0;whiteSpace=wrap;html=1;absoluteArcSize=1;arcSize=14;strokeWidth=2;glass=0;sketch=0;fillColor=#dae8fc;strokeColor=none;" parent="qFUEs6rHIgTU6EbkKqds-1" vertex="1">
          <mxGeometry x="60" y="10" width="610" height="540" as="geometry" />
        </mxCell>
        <mxCell id="AACugE2adlVZ0FxIYf1k-12" value="&lt;b&gt;PaoTui&lt;/b&gt;" style="rounded=0;whiteSpace=wrap;html=1;glass=0;sketch=0;strokeColor=none;fillColor=#ffff88;" parent="qFUEs6rHIgTU6EbkKqds-1" vertex="1">
          <mxGeometry x="70" y="20" width="580" height="50" as="geometry" />
        </mxCell>
        <mxCell id="AACugE2adlVZ0FxIYf1k-20" value="" style="rounded=0;whiteSpace=wrap;html=1;glass=0;sketch=0;strokeColor=none;fillColor=#d0cee2;" parent="qFUEs6rHIgTU6EbkKqds-1" vertex="1">
          <mxGeometry x="280" y="170" width="370" height="370" as="geometry" />
        </mxCell>
        <mxCell id="AACugE2adlVZ0FxIYf1k-94" value="" style="group;fillColor=#d5e8d4;strokeColor=#82b366;" parent="qFUEs6rHIgTU6EbkKqds-1" vertex="1" connectable="0">
          <mxGeometry x="69.99999999999999" y="170" width="111.61" height="370" as="geometry" />
        </mxCell>
        <mxCell id="AACugE2adlVZ0FxIYf1k-18" value="" style="rounded=0;whiteSpace=wrap;html=1;glass=0;sketch=0;strokeColor=none;fillColor=#d5e8d4;" parent="AACugE2adlVZ0FxIYf1k-94" vertex="1">
          <mxGeometry width="111.61" height="370" as="geometry" />
        </mxCell>
        <mxCell id="AACugE2adlVZ0FxIYf1k-22" value="Config" style="rounded=0;whiteSpace=wrap;html=1;glass=0;sketch=0;strokeColor=none;" parent="AACugE2adlVZ0FxIYf1k-94" vertex="1">
          <mxGeometry x="6.789999999999999" y="8.549999999999997" width="98.04" height="31.45" as="geometry" />
        </mxCell>
        <mxCell id="AACugE2adlVZ0FxIYf1k-24" value="Components" style="rounded=0;whiteSpace=wrap;html=1;glass=0;sketch=0;strokeColor=none;" parent="AACugE2adlVZ0FxIYf1k-94" vertex="1">
          <mxGeometry x="6.789999999999999" y="50" width="98.04" height="30" as="geometry" />
        </mxCell>
        <mxCell id="AACugE2adlVZ0FxIYf1k-28" value="Plugin" style="rounded=0;whiteSpace=wrap;html=1;glass=0;sketch=0;strokeColor=none;" parent="AACugE2adlVZ0FxIYf1k-94" vertex="1">
          <mxGeometry x="6.759999999999998" y="90" width="98.04" height="30" as="geometry" />
        </mxCell>
        <mxCell id="AACugE2adlVZ0FxIYf1k-29" value="Service" style="rounded=0;whiteSpace=wrap;html=1;glass=0;sketch=0;strokeColor=none;" parent="AACugE2adlVZ0FxIYf1k-94" vertex="1">
          <mxGeometry x="6.759999999999998" y="130" width="98.04" height="30" as="geometry" />
        </mxCell>
        <mxCell id="AACugE2adlVZ0FxIYf1k-30" value="Store" style="rounded=0;whiteSpace=wrap;html=1;glass=0;sketch=0;strokeColor=none;" parent="AACugE2adlVZ0FxIYf1k-94" vertex="1">
          <mxGeometry x="6.759999999999998" y="170" width="98.04" height="30" as="geometry" />
        </mxCell>
        <mxCell id="AACugE2adlVZ0FxIYf1k-31" value="app.js" style="rounded=0;whiteSpace=wrap;html=1;glass=0;sketch=0;strokeColor=none;" parent="AACugE2adlVZ0FxIYf1k-94" vertex="1">
          <mxGeometry x="6.789999999999999" y="290" width="98.04" height="30" as="geometry" />
        </mxCell>
        <mxCell id="AACugE2adlVZ0FxIYf1k-63" value="Utils" style="rounded=0;whiteSpace=wrap;html=1;glass=0;sketch=0;strokeColor=none;" parent="AACugE2adlVZ0FxIYf1k-94" vertex="1">
          <mxGeometry x="6.789999999999999" y="210" width="98.04" height="30" as="geometry" />
        </mxCell>
        <mxCell id="AACugE2adlVZ0FxIYf1k-64" value="app.config.js" style="rounded=0;whiteSpace=wrap;html=1;glass=0;sketch=0;strokeColor=none;" parent="AACugE2adlVZ0FxIYf1k-94" vertex="1">
          <mxGeometry x="6.789999999999999" y="250" width="98.04" height="30" as="geometry" />
        </mxCell>
        <mxCell id="AACugE2adlVZ0FxIYf1k-66" value="..." style="rounded=0;whiteSpace=wrap;html=1;glass=0;sketch=0;strokeColor=none;" parent="AACugE2adlVZ0FxIYf1k-94" vertex="1">
          <mxGeometry x="6.789999999999999" y="330" width="98.04" height="30" as="geometry" />
        </mxCell>
        <mxCell id="AACugE2adlVZ0FxIYf1k-106" value="" style="group" parent="qFUEs6rHIgTU6EbkKqds-1" vertex="1" connectable="0">
          <mxGeometry x="290" y="180" width="110" height="350" as="geometry" />
        </mxCell>
        <mxCell id="AACugE2adlVZ0FxIYf1k-68" value="" style="verticalLabelPosition=bottom;verticalAlign=top;html=1;shape=mxgraph.basic.rect;fillColor2=none;strokeWidth=1;size=20;indent=5;rounded=0;glass=0;sketch=0;fontFamily=Helvetica;fontSize=12;fillColor=#b0e3e6;strokeColor=none;" parent="AACugE2adlVZ0FxIYf1k-106" vertex="1">
          <mxGeometry width="110" height="350" as="geometry" />
        </mxCell>
        <mxCell id="AACugE2adlVZ0FxIYf1k-71" value="&lt;font color=&quot;#ffffff&quot;&gt;家政&lt;/font&gt;" style="rounded=0;whiteSpace=wrap;html=1;glass=0;sketch=0;fontFamily=Helvetica;fontSize=12;strokeColor=none;strokeWidth=2;fillColor=#cce5ff;" parent="AACugE2adlVZ0FxIYf1k-106" vertex="1">
          <mxGeometry x="11.25" y="10" width="87.5" height="30" as="geometry" />
        </mxCell>
        <mxCell id="AACugE2adlVZ0FxIYf1k-95" value="" style="group;fillColor=#ffe6cc;strokeColor=none;" parent="AACugE2adlVZ0FxIYf1k-106" vertex="1" connectable="0">
          <mxGeometry x="11.25" y="50" width="90" height="290" as="geometry" />
        </mxCell>
        <mxCell id="AACugE2adlVZ0FxIYf1k-96" value="" style="rounded=0;whiteSpace=wrap;html=1;glass=0;sketch=0;strokeColor=none;fillColor=#d5e8d4;" parent="AACugE2adlVZ0FxIYf1k-95" vertex="1">
          <mxGeometry width="90" height="290" as="geometry" />
        </mxCell>
        <mxCell id="AACugE2adlVZ0FxIYf1k-97" value="Config" style="rounded=0;whiteSpace=wrap;html=1;glass=0;sketch=0;strokeColor=none;" parent="AACugE2adlVZ0FxIYf1k-95" vertex="1">
          <mxGeometry x="5.475315831914703" y="6.70135135135135" width="79.05743212973749" height="24.65" as="geometry" />
        </mxCell>
        <mxCell id="AACugE2adlVZ0FxIYf1k-98" value="Components" style="rounded=0;whiteSpace=wrap;html=1;glass=0;sketch=0;strokeColor=none;" parent="AACugE2adlVZ0FxIYf1k-95" vertex="1">
          <mxGeometry x="5.475315831914703" y="39.189189189189186" width="79.05743212973749" height="23.513513513513516" as="geometry" />
        </mxCell>
        <mxCell id="AACugE2adlVZ0FxIYf1k-99" value="Plugin" style="rounded=0;whiteSpace=wrap;html=1;glass=0;sketch=0;strokeColor=none;" parent="AACugE2adlVZ0FxIYf1k-95" vertex="1">
          <mxGeometry x="5.4511244512140475" y="70.54054054054053" width="79.05743212973749" height="23.513513513513516" as="geometry" />
        </mxCell>
        <mxCell id="AACugE2adlVZ0FxIYf1k-100" value="Service" style="rounded=0;whiteSpace=wrap;html=1;glass=0;sketch=0;strokeColor=none;" parent="AACugE2adlVZ0FxIYf1k-95" vertex="1">
          <mxGeometry x="5.4511244512140475" y="101.89189189189189" width="79.05743212973749" height="23.513513513513516" as="geometry" />
        </mxCell>
        <mxCell id="AACugE2adlVZ0FxIYf1k-101" value="Store" style="rounded=0;whiteSpace=wrap;html=1;glass=0;sketch=0;strokeColor=none;" parent="AACugE2adlVZ0FxIYf1k-95" vertex="1">
          <mxGeometry x="5.4511244512140475" y="133.24324324324326" width="79.05743212973749" height="23.513513513513516" as="geometry" />
        </mxCell>
        <mxCell id="AACugE2adlVZ0FxIYf1k-102" value="app.js" style="rounded=0;whiteSpace=wrap;html=1;glass=0;sketch=0;strokeColor=none;" parent="AACugE2adlVZ0FxIYf1k-95" vertex="1">
          <mxGeometry x="5.475315831914703" y="227.29729729729732" width="79.05743212973749" height="23.513513513513516" as="geometry" />
        </mxCell>
        <mxCell id="AACugE2adlVZ0FxIYf1k-103" value="Utils" style="rounded=0;whiteSpace=wrap;html=1;glass=0;sketch=0;strokeColor=none;" parent="AACugE2adlVZ0FxIYf1k-95" vertex="1">
          <mxGeometry x="5.475315831914703" y="164.5945945945946" width="79.05743212973749" height="23.513513513513516" as="geometry" />
        </mxCell>
        <mxCell id="AACugE2adlVZ0FxIYf1k-104" value="app.config.js" style="rounded=0;whiteSpace=wrap;html=1;glass=0;sketch=0;strokeColor=none;" parent="AACugE2adlVZ0FxIYf1k-95" vertex="1">
          <mxGeometry x="5.475315831914703" y="195.94594594594597" width="79.05743212973749" height="23.513513513513516" as="geometry" />
        </mxCell>
        <mxCell id="AACugE2adlVZ0FxIYf1k-105" value="..." style="rounded=0;whiteSpace=wrap;html=1;glass=0;sketch=0;strokeColor=none;" parent="AACugE2adlVZ0FxIYf1k-95" vertex="1">
          <mxGeometry x="5.475315831914703" y="258.6486486486487" width="79.05743212973749" height="23.513513513513516" as="geometry" />
        </mxCell>
        <mxCell id="AACugE2adlVZ0FxIYf1k-107" value="" style="group" parent="qFUEs6rHIgTU6EbkKqds-1" vertex="1" connectable="0">
          <mxGeometry x="410" y="180" width="110" height="350" as="geometry" />
        </mxCell>
        <mxCell id="AACugE2adlVZ0FxIYf1k-108" value="" style="verticalLabelPosition=bottom;verticalAlign=top;html=1;shape=mxgraph.basic.rect;fillColor2=none;strokeWidth=1;size=20;indent=5;rounded=0;glass=0;sketch=0;fontFamily=Helvetica;fontSize=12;fillColor=#b0e3e6;strokeColor=none;" parent="AACugE2adlVZ0FxIYf1k-107" vertex="1">
          <mxGeometry width="110" height="350" as="geometry" />
        </mxCell>
        <mxCell id="AACugE2adlVZ0FxIYf1k-109" value="&lt;font color=&quot;#ffffff&quot;&gt;代驾&lt;/font&gt;" style="rounded=0;whiteSpace=wrap;html=1;glass=0;sketch=0;fontFamily=Helvetica;fontSize=12;strokeColor=none;strokeWidth=2;fillColor=#cce5ff;" parent="AACugE2adlVZ0FxIYf1k-107" vertex="1">
          <mxGeometry x="11.25" y="10" width="87.5" height="30" as="geometry" />
        </mxCell>
        <mxCell id="AACugE2adlVZ0FxIYf1k-110" value="" style="group;fillColor=#ffe6cc;strokeColor=none;" parent="AACugE2adlVZ0FxIYf1k-107" vertex="1" connectable="0">
          <mxGeometry x="11.25" y="50" width="90" height="290" as="geometry" />
        </mxCell>
        <mxCell id="AACugE2adlVZ0FxIYf1k-111" value="" style="rounded=0;whiteSpace=wrap;html=1;glass=0;sketch=0;strokeColor=none;fillColor=#d5e8d4;" parent="AACugE2adlVZ0FxIYf1k-110" vertex="1">
          <mxGeometry width="90" height="290" as="geometry" />
        </mxCell>
        <mxCell id="AACugE2adlVZ0FxIYf1k-112" value="Config" style="rounded=0;whiteSpace=wrap;html=1;glass=0;sketch=0;strokeColor=none;" parent="AACugE2adlVZ0FxIYf1k-110" vertex="1">
          <mxGeometry x="5.475315831914703" y="6.70135135135135" width="79.05743212973749" height="24.65" as="geometry" />
        </mxCell>
        <mxCell id="AACugE2adlVZ0FxIYf1k-113" value="Components" style="rounded=0;whiteSpace=wrap;html=1;glass=0;sketch=0;strokeColor=none;" parent="AACugE2adlVZ0FxIYf1k-110" vertex="1">
          <mxGeometry x="5.475315831914703" y="39.189189189189186" width="79.05743212973749" height="23.513513513513516" as="geometry" />
        </mxCell>
        <mxCell id="AACugE2adlVZ0FxIYf1k-114" value="Plugin" style="rounded=0;whiteSpace=wrap;html=1;glass=0;sketch=0;strokeColor=none;" parent="AACugE2adlVZ0FxIYf1k-110" vertex="1">
          <mxGeometry x="5.4511244512140475" y="70.54054054054053" width="79.05743212973749" height="23.513513513513516" as="geometry" />
        </mxCell>
        <mxCell id="AACugE2adlVZ0FxIYf1k-115" value="Service" style="rounded=0;whiteSpace=wrap;html=1;glass=0;sketch=0;strokeColor=none;" parent="AACugE2adlVZ0FxIYf1k-110" vertex="1">
          <mxGeometry x="5.4511244512140475" y="101.89189189189189" width="79.05743212973749" height="23.513513513513516" as="geometry" />
        </mxCell>
        <mxCell id="AACugE2adlVZ0FxIYf1k-116" value="Store" style="rounded=0;whiteSpace=wrap;html=1;glass=0;sketch=0;strokeColor=none;" parent="AACugE2adlVZ0FxIYf1k-110" vertex="1">
          <mxGeometry x="5.4511244512140475" y="133.24324324324326" width="79.05743212973749" height="23.513513513513516" as="geometry" />
        </mxCell>
        <mxCell id="AACugE2adlVZ0FxIYf1k-117" value="app.js" style="rounded=0;whiteSpace=wrap;html=1;glass=0;sketch=0;strokeColor=none;" parent="AACugE2adlVZ0FxIYf1k-110" vertex="1">
          <mxGeometry x="5.475315831914703" y="227.29729729729732" width="79.05743212973749" height="23.513513513513516" as="geometry" />
        </mxCell>
        <mxCell id="AACugE2adlVZ0FxIYf1k-118" value="Utils" style="rounded=0;whiteSpace=wrap;html=1;glass=0;sketch=0;strokeColor=none;" parent="AACugE2adlVZ0FxIYf1k-110" vertex="1">
          <mxGeometry x="5.475315831914703" y="164.5945945945946" width="79.05743212973749" height="23.513513513513516" as="geometry" />
        </mxCell>
        <mxCell id="AACugE2adlVZ0FxIYf1k-119" value="app.config.js" style="rounded=0;whiteSpace=wrap;html=1;glass=0;sketch=0;strokeColor=none;" parent="AACugE2adlVZ0FxIYf1k-110" vertex="1">
          <mxGeometry x="5.475315831914703" y="195.94594594594597" width="79.05743212973749" height="23.513513513513516" as="geometry" />
        </mxCell>
        <mxCell id="AACugE2adlVZ0FxIYf1k-120" value="..." style="rounded=0;whiteSpace=wrap;html=1;glass=0;sketch=0;strokeColor=none;" parent="AACugE2adlVZ0FxIYf1k-110" vertex="1">
          <mxGeometry x="5.475315831914703" y="258.6486486486487" width="79.05743212973749" height="23.513513513513516" as="geometry" />
        </mxCell>
        <mxCell id="AACugE2adlVZ0FxIYf1k-121" value="" style="group" parent="qFUEs6rHIgTU6EbkKqds-1" vertex="1" connectable="0">
          <mxGeometry x="530" y="180" width="110" height="350" as="geometry" />
        </mxCell>
        <mxCell id="AACugE2adlVZ0FxIYf1k-122" value="" style="verticalLabelPosition=bottom;verticalAlign=top;html=1;shape=mxgraph.basic.rect;fillColor2=none;strokeWidth=1;size=20;indent=5;rounded=0;glass=0;sketch=0;fontFamily=Helvetica;fontSize=12;fillColor=#b0e3e6;strokeColor=none;" parent="AACugE2adlVZ0FxIYf1k-121" vertex="1">
          <mxGeometry width="110" height="350" as="geometry" />
        </mxCell>
        <mxCell id="AACugE2adlVZ0FxIYf1k-123" value="&lt;font color=&quot;#ffffff&quot;&gt;...&lt;/font&gt;" style="rounded=0;whiteSpace=wrap;html=1;glass=0;sketch=0;fontFamily=Helvetica;fontSize=12;strokeColor=none;strokeWidth=2;fillColor=#cce5ff;" parent="AACugE2adlVZ0FxIYf1k-121" vertex="1">
          <mxGeometry x="11.25" y="10" width="87.5" height="30" as="geometry" />
        </mxCell>
        <mxCell id="AACugE2adlVZ0FxIYf1k-124" value="" style="group;fillColor=#ffe6cc;strokeColor=none;" parent="AACugE2adlVZ0FxIYf1k-121" vertex="1" connectable="0">
          <mxGeometry x="11.25" y="50" width="90" height="290" as="geometry" />
        </mxCell>
        <mxCell id="AACugE2adlVZ0FxIYf1k-125" value="" style="rounded=0;whiteSpace=wrap;html=1;glass=0;sketch=0;strokeColor=none;fillColor=#d5e8d4;" parent="AACugE2adlVZ0FxIYf1k-124" vertex="1">
          <mxGeometry width="90" height="290" as="geometry" />
        </mxCell>
        <mxCell id="AACugE2adlVZ0FxIYf1k-126" value="Config" style="rounded=0;whiteSpace=wrap;html=1;glass=0;sketch=0;strokeColor=none;" parent="AACugE2adlVZ0FxIYf1k-124" vertex="1">
          <mxGeometry x="5.475315831914703" y="6.70135135135135" width="79.05743212973749" height="24.65" as="geometry" />
        </mxCell>
        <mxCell id="AACugE2adlVZ0FxIYf1k-127" value="Components" style="rounded=0;whiteSpace=wrap;html=1;glass=0;sketch=0;strokeColor=none;" parent="AACugE2adlVZ0FxIYf1k-124" vertex="1">
          <mxGeometry x="5.475315831914703" y="39.189189189189186" width="79.05743212973749" height="23.513513513513516" as="geometry" />
        </mxCell>
        <mxCell id="AACugE2adlVZ0FxIYf1k-128" value="Plugin" style="rounded=0;whiteSpace=wrap;html=1;glass=0;sketch=0;strokeColor=none;" parent="AACugE2adlVZ0FxIYf1k-124" vertex="1">
          <mxGeometry x="5.4511244512140475" y="70.54054054054053" width="79.05743212973749" height="23.513513513513516" as="geometry" />
        </mxCell>
        <mxCell id="AACugE2adlVZ0FxIYf1k-129" value="Service" style="rounded=0;whiteSpace=wrap;html=1;glass=0;sketch=0;strokeColor=none;" parent="AACugE2adlVZ0FxIYf1k-124" vertex="1">
          <mxGeometry x="5.4511244512140475" y="101.89189189189189" width="79.05743212973749" height="23.513513513513516" as="geometry" />
        </mxCell>
        <mxCell id="AACugE2adlVZ0FxIYf1k-130" value="Store" style="rounded=0;whiteSpace=wrap;html=1;glass=0;sketch=0;strokeColor=none;" parent="AACugE2adlVZ0FxIYf1k-124" vertex="1">
          <mxGeometry x="5.4511244512140475" y="133.24324324324326" width="79.05743212973749" height="23.513513513513516" as="geometry" />
        </mxCell>
        <mxCell id="AACugE2adlVZ0FxIYf1k-131" value="app.js" style="rounded=0;whiteSpace=wrap;html=1;glass=0;sketch=0;strokeColor=none;" parent="AACugE2adlVZ0FxIYf1k-124" vertex="1">
          <mxGeometry x="5.475315831914703" y="227.29729729729732" width="79.05743212973749" height="23.513513513513516" as="geometry" />
        </mxCell>
        <mxCell id="AACugE2adlVZ0FxIYf1k-132" value="Utils" style="rounded=0;whiteSpace=wrap;html=1;glass=0;sketch=0;strokeColor=none;" parent="AACugE2adlVZ0FxIYf1k-124" vertex="1">
          <mxGeometry x="5.475315831914703" y="164.5945945945946" width="79.05743212973749" height="23.513513513513516" as="geometry" />
        </mxCell>
        <mxCell id="AACugE2adlVZ0FxIYf1k-133" value="app.config.js" style="rounded=0;whiteSpace=wrap;html=1;glass=0;sketch=0;strokeColor=none;" parent="AACugE2adlVZ0FxIYf1k-124" vertex="1">
          <mxGeometry x="5.475315831914703" y="195.94594594594597" width="79.05743212973749" height="23.513513513513516" as="geometry" />
        </mxCell>
        <mxCell id="AACugE2adlVZ0FxIYf1k-134" value="..." style="rounded=0;whiteSpace=wrap;html=1;glass=0;sketch=0;strokeColor=none;" parent="AACugE2adlVZ0FxIYf1k-124" vertex="1">
          <mxGeometry x="5.475315831914703" y="258.6486486486487" width="79.05743212973749" height="23.513513513513516" as="geometry" />
        </mxCell>
        <mxCell id="qFUEs6rHIgTU6EbkKqds-77" value="" style="shape=singleArrow;whiteSpace=wrap;html=1;fillColor=#0050ef;strokeColor=none;fontColor=#ffffff;shadow=0;" parent="qFUEs6rHIgTU6EbkKqds-1" vertex="1">
          <mxGeometry x="190" y="335" width="80" height="40" as="geometry" />
        </mxCell>
        <mxCell id="qFUEs6rHIgTU6EbkKqds-80" value="" style="group" parent="qFUEs6rHIgTU6EbkKqds-1" vertex="1" connectable="0">
          <mxGeometry x="70" y="80" width="580" height="80" as="geometry" />
        </mxCell>
        <mxCell id="qFUEs6rHIgTU6EbkKqds-2" value="" style="rounded=0;whiteSpace=wrap;html=1;fillColor=#1ba1e2;strokeColor=none;fontColor=#ffffff;flipH=1;flipV=1;" parent="qFUEs6rHIgTU6EbkKqds-80" vertex="1">
          <mxGeometry width="580" height="80" as="geometry" />
        </mxCell>
        <mxCell id="qFUEs6rHIgTU6EbkKqds-5" value="&lt;font style=&quot;font-size: 16px&quot; color=&quot;#ffffff&quot;&gt;优惠券&lt;/font&gt;" style="rounded=0;whiteSpace=wrap;html=1;strokeColor=none;fillColor=#b0e3e6;flipH=1;flipV=1;" parent="qFUEs6rHIgTU6EbkKqds-80" vertex="1">
          <mxGeometry x="340" y="10" width="90" height="60" as="geometry" />
        </mxCell>
        <mxCell id="qFUEs6rHIgTU6EbkKqds-4" value="&lt;font style=&quot;font-size: 16px&quot; color=&quot;#ffffff&quot;&gt;地址&lt;/font&gt;" style="rounded=0;whiteSpace=wrap;html=1;strokeColor=none;fillColor=#b0e3e6;flipH=1;flipV=1;" parent="qFUEs6rHIgTU6EbkKqds-80" vertex="1">
          <mxGeometry x="120" y="10" width="90" height="60" as="geometry" />
        </mxCell>
        <mxCell id="qFUEs6rHIgTU6EbkKqds-6" value="&lt;font style=&quot;font-size: 16px&quot; color=&quot;#ffffff&quot;&gt;个人中心&lt;/font&gt;" style="rounded=0;whiteSpace=wrap;html=1;strokeColor=none;fillColor=#b0e3e6;flipH=1;flipV=1;" parent="qFUEs6rHIgTU6EbkKqds-80" vertex="1">
          <mxGeometry x="230" y="10" width="90" height="60" as="geometry" />
        </mxCell>
        <mxCell id="qFUEs6rHIgTU6EbkKqds-7" value="&lt;font style=&quot;font-size: 16px&quot; color=&quot;#ffffff&quot;&gt;活动&lt;/font&gt;" style="rounded=0;whiteSpace=wrap;html=1;strokeColor=none;fillColor=#b0e3e6;flipH=1;flipV=1;" parent="qFUEs6rHIgTU6EbkKqds-80" vertex="1">
          <mxGeometry x="440" y="10" width="90" height="60" as="geometry" />
        </mxCell>
        <mxCell id="qFUEs6rHIgTU6EbkKqds-76" value="&lt;font style=&quot;font-size: 12px&quot; color=&quot;#ffffff&quot;&gt;更&lt;br&gt;多&lt;/font&gt;" style="rounded=0;whiteSpace=wrap;html=1;strokeColor=none;fillColor=#b0e3e6;flipH=1;flipV=1;" parent="qFUEs6rHIgTU6EbkKqds-80" vertex="1">
          <mxGeometry x="540" y="10" width="30" height="60" as="geometry" />
        </mxCell>
        <mxCell id="qFUEs6rHIgTU6EbkKqds-3" value="&lt;font color=&quot;#ffffff&quot; size=&quot;1&quot;&gt;&lt;b style=&quot;font-size: 16px&quot;&gt;订单&lt;/b&gt;&lt;/font&gt;" style="rounded=0;whiteSpace=wrap;html=1;strokeColor=none;fillColor=#b0e3e6;flipH=0;flipV=0;" parent="qFUEs6rHIgTU6EbkKqds-80" vertex="1">
          <mxGeometry x="10" y="10" width="90" height="60" as="geometry" />
        </mxCell>
      </root>
    </mxGraphModel>
  </diagram>
</mxfile>
